<?xml version="1.0" encoding="UTF-8" standalone="no"?><svg xmlns="http://www.w3.org/2000/svg" xmlns:xlink="http://www.w3.org/1999/xlink" contentScriptType="application/ecmascript" contentStyleType="text/css" height="337px" preserveAspectRatio="none" style="width:573px;height:337px;" version="1.1" viewBox="0 0 573 337" width="573px" zoomAndPan="magnify"><defs><filter height="300%" id="fdnwlzia64uzq" width="300%" x="-1" y="-1"><feGaussianBlur result="blurOut" stdDeviation="2.0"/><feColorMatrix in="blurOut" result="blurOut2" type="matrix" values="0 0 0 0 0 0 0 0 0 0 0 0 0 0 0 0 0 0 .4 0"/><feOffset dx="4.0" dy="4.0" in="blurOut2" result="blurOut3"/><feBlend in="SourceGraphic" in2="blurOut3" mode="normal"/></filter></defs><g><text fill="#000000" font-family="sans-serif" font-size="14" font-weight="bold" lengthAdjust="spacingAndGlyphs" textLength="418" x="78.5" y="22.9951">Fuxi-Kubernetes Watch Resource Sequence Diagram</text><rect fill="#FFFFFF" filter="url(#fdnwlzia64uzq)" height="223.0625" style="stroke: #000000; stroke-width: 2.0;" width="549" x="13" y="85.5938"/><rect fill="#FFFFFF" filter="url(#fdnwlzia64uzq)" height="104.5313" style="stroke: #000000; stroke-width: 2.0;" width="529" x="23" y="197.125"/><line style="stroke: #A80036; stroke-width: 1.0; stroke-dasharray: 5.0,5.0;" x1="122" x2="122" y1="68.5938" y2="325.6563"/><line style="stroke: #A80036; stroke-width: 1.0; stroke-dasharray: 5.0,5.0;" x1="298.5" x2="298.5" y1="68.5938" y2="325.6563"/><line style="stroke: #A80036; stroke-width: 1.0; stroke-dasharray: 5.0,5.0;" x1="500" x2="500" y1="68.5938" y2="325.6563"/><rect fill="#FEFECE" filter="url(#fdnwlzia64uzq)" height="30.2969" style="stroke: #A80036; stroke-width: 1.5;" width="174" x="33" y="33.2969"/><text fill="#000000" font-family="sans-serif" font-size="14" lengthAdjust="spacingAndGlyphs" textLength="160" x="40" y="53.292">Kubernetes_Api_Server</text><rect fill="#FEFECE" filter="url(#fdnwlzia64uzq)" height="30.2969" style="stroke: #A80036; stroke-width: 1.5;" width="77" x="258.5" y="33.2969"/><text fill="#000000" font-family="sans-serif" font-size="14" lengthAdjust="spacingAndGlyphs" textLength="63" x="265.5" y="53.292">Producer</text><rect fill="#FEFECE" filter="url(#fdnwlzia64uzq)" height="30.2969" style="stroke: #A80036; stroke-width: 1.5;" width="80" x="458" y="33.2969"/><text fill="#000000" font-family="sans-serif" font-size="14" lengthAdjust="spacingAndGlyphs" textLength="66" x="465" y="53.292">DeltaFIFO</text><rect fill="none" height="223.0625" style="stroke: #000000; stroke-width: 2.0;" width="549" x="13" y="85.5938"/><polygon fill="#EEEEEE" points="13,85.5938,90,85.5938,90,92.5938,80,102.5938,13,102.5938,13,85.5938" style="stroke: #000000; stroke-width: 2.0;"/><text fill="#000000" font-family="sans-serif" font-size="13" font-weight="bold" lengthAdjust="spacingAndGlyphs" textLength="32" x="28" y="98.6606">loop</text><polygon fill="#A80036" points="133,119.7266,123,123.7266,133,127.7266,129,123.7266" style="stroke: #A80036; stroke-width: 1.0;"/><line style="stroke: #A80036; stroke-width: 1.0;" x1="127" x2="298" y1="123.7266" y2="123.7266"/><text fill="#000000" font-family="sans-serif" font-size="13" lengthAdjust="spacingAndGlyphs" textLength="85" x="139" y="118.7935">list resources</text><polygon fill="#A80036" points="287,148.8594,297,152.8594,287,156.8594,291,152.8594" style="stroke: #A80036; stroke-width: 1.0;"/><line style="stroke: #A80036; stroke-width: 1.0;" x1="122" x2="293" y1="152.8594" y2="152.8594"/><text fill="#000000" font-family="sans-serif" font-size="13" lengthAdjust="spacingAndGlyphs" textLength="101" x="129" y="147.9263">list of resources</text><polygon fill="#A80036" points="488,177.9922,498,181.9922,488,185.9922,492,181.9922" style="stroke: #A80036; stroke-width: 1.0;"/><line style="stroke: #A80036; stroke-width: 1.0;" x1="299" x2="494" y1="181.9922" y2="181.9922"/><text fill="#000000" font-family="sans-serif" font-size="13" lengthAdjust="spacingAndGlyphs" textLength="149" x="306" y="177.0591">replace each resources</text><rect fill="none" height="104.5313" style="stroke: #000000; stroke-width: 2.0;" width="529" x="23" y="197.125"/><polygon fill="#EEEEEE" points="23,197.125,100,197.125,100,204.125,90,214.125,23,214.125,23,197.125" style="stroke: #000000; stroke-width: 2.0;"/><text fill="#000000" font-family="sans-serif" font-size="13" font-weight="bold" lengthAdjust="spacingAndGlyphs" textLength="32" x="38" y="210.1919">loop</text><polygon fill="#A80036" points="133,231.2578,123,235.2578,133,239.2578,129,235.2578" style="stroke: #A80036; stroke-width: 1.0;"/><line style="stroke: #A80036; stroke-width: 1.0;" x1="127" x2="298" y1="235.2578" y2="235.2578"/><text fill="#000000" font-family="sans-serif" font-size="13" lengthAdjust="spacingAndGlyphs" textLength="153" x="139" y="230.3247">watch event of resource</text><polygon fill="#A80036" points="287,260.3906,297,264.3906,287,268.3906,291,264.3906" style="stroke: #A80036; stroke-width: 1.0;"/><line style="stroke: #A80036; stroke-width: 1.0;" x1="122" x2="293" y1="264.3906" y2="264.3906"/><text fill="#000000" font-family="sans-serif" font-size="13" lengthAdjust="spacingAndGlyphs" textLength="112" x="129" y="259.4575">event of resource</text><polygon fill="#A80036" points="488,289.5234,498,293.5234,488,297.5234,492,293.5234" style="stroke: #A80036; stroke-width: 1.0;"/><line style="stroke: #A80036; stroke-width: 1.0;" x1="299" x2="494" y1="293.5234" y2="293.5234"/><text fill="#000000" font-family="sans-serif" font-size="13" lengthAdjust="spacingAndGlyphs" textLength="177" x="306" y="288.5903">add/delete/update resource</text><!--
@startuml
title Fuxi-Kubernetes Watch Resource Sequence Diagram

hide footbox

participant Kubernetes_Api_Server as KAS
participant Producer
participant DeltaFIFO

group loop
  Producer -> KAS: list resources
  KAS -> Producer: list of resources
  Producer -> DeltaFIFO: replace each resources
  
  group loop
    Producer -> KAS: watch event of resource
    KAS -> Producer: event of resource
    Producer -> DeltaFIFO: add/delete/update resource
  end
end
@enduml

PlantUML version 1.2017.16beta5(Unknown compile time)
(GPL source distribution)
Java Runtime: Java(TM) SE Runtime Environment
JVM: Java HotSpot(TM) 64-Bit Server VM
Java Version: 1.7.0_25-b15
Operating System: Linux
Default Encoding: UTF-8
Language: en
Country: US
--></g></svg>